<svg xmlns="http://www.w3.org/2000/svg">
	<symbol id="gridIcon" viewBox="0 0 24 24" stroke-width="2" stroke-linecap="round" stroke-linejoin="round">
		<line x1="8" y1="6" x2="21" y2="6"></line>
		<line x1="8" y1="12" x2="21" y2="12"></line>
		<line x1="8" y1="18" x2="21" y2="18"></line>
		<line x1="3" y1="6" x2="3" y2="6"></line>
		<line x1="3" y1="12" x2="3" y2="12"></line>
		<line x1="3" y1="18" x2="3" y2="18"></line>
	</symbol>

	<symbol id="columnIcon" viewBox="0 0 24 24" stroke-width="2" stroke-linecap="round" stroke-linejoin="round">
		<rect x="3" y="3" width="7" height="7"></rect>
		<rect x="14" y="3" width="7" height="7"></rect>
		<rect x="14" y="14" width="7" height="7"></rect>
		<rect x="3" y="14" width="7" height="7"></rect>
	</symbol>

	<symbol id="searchIcon" viewBox="0 0 24 24" fill="none" stroke-width="2" stroke-linecap="round" stroke-linejoin="round">
		<circle cx="11" cy="11" r="8"></circle>
		<line x1="21" y1="21" x2="16.65" y2="16.65"></line>
	</symbol>

	<symbol id="editIcon" viewBox="0 0 489.9 489.9">
		<g>
			<g>
				<path d="M475.65,63.5v-7.7c0-30.8-25-55.8-55.8-55.8s-55.8,25-55.8,55.8v7.7H475.65z"/>
			</g>
			<g>
				<path d="M345.55,439.5H39.25c-13.9,0-25.2,11.3-25.2,25.2l0,0c0,13.9,11.3,25.2,25.2,25.2h340.9L345.55,439.5z"/>
			</g>
			<g>
				<g>
					<path d="M331.45,137.3H39.25c-13.9,0-25.2,11.3-25.2,25.2l0,0c0,13.9,11.3,25.2,25.2,25.2h292.2V137.3z"/>
				</g>
				<g>
					<path d="M331.45,238H39.25c-13.9,0-25.2,11.3-25.2,25.2l0,0c0,13.9,11.3,25.2,25.2,25.2h292.2V238z"/>
				</g>
				<g>
					<path d="M331.45,338.7H39.25c-13.9,0-25.2,11.3-25.2,25.2l0,0c0,13.9,11.3,25.2,25.2,25.2h292.2V338.7z"/>
				</g>
			</g>
			<g>
				<path d="M364.15,96.2v312.9l50.8,73.4c2.4,3.5,7.6,3.5,10.1,0l50.8-73.4V96.2H364.15z"/>
			</g>
		</g>
	</symbol>
</svg>